<?xml version="1.0" encoding="utf-8"?>
<!-- Generator: Adobe Illustrator 18.1.1, SVG Export Plug-In . SVG Version: 6.00 Build 0)  -->
<svg version="1.1" id="Layer_1" xmlns="http://www.w3.org/2000/svg" xmlns:xlink="http://www.w3.org/1999/xlink" x="0px" y="0px"
	 viewBox="0 0 1000 1000" enable-background="new 0 0 1000 1000" xml:space="preserve">
<rect y="-0.5" fill="#E8E3E3" width="1000" height="1000"/>
<rect x="37.5" y="204" fill="#EDEBEB" stroke="#666666" stroke-width="0.25" stroke-miterlimit="10" width="930.8" height="209.1"/>
<rect x="183.5" y="423.1" fill="#D7D7D8" width="632.7" height="93.4"/>
<rect x="339" y="295.6" fill="#7373EA" width="258" height="30.4"/>
<rect x="184.8" y="538.1" fill="#676565" width="258" height="18.4"/>
<rect x="37.5" y="412" fill="#F9F9F9" stroke="#666666" stroke-width="0.25" stroke-miterlimit="10" width="930.8" height="209.1"/>
<rect x="113.4" y="223.8" fill="#FFFFFF" stroke="#666666" stroke-miterlimit="10" width="169.2" height="169.2"/>
<path fill="#DCDBDB" d="M198.5,271.7l57.7-28.9l16.5,13.2v106.3L248,378.8V271.6l-49.5,24.7L198.5,271.7L198.5,271.7z"/>
<rect x="113.9" y="427.9" fill="#FFFFFF" stroke="#666666" stroke-miterlimit="10" width="169.2" height="169.2"/>
<path fill="#A8A6A6" d="M149.1,378.8l-24.7-16.5V256l16.5-13.2l57.7,28.9v24.7l-49.5-24.7v16.5l33.1,16.5v16.5l-33.1-16.5V378.8z"/>
<path fill="#DCDBDB" d="M198.5,477.4l57.7-28.9l16.5,13.2V568L248,584.5V477.4l-49.5,24.7V477.4L198.5,477.4z"/>
<path fill="#A8A6A6" d="M149.1,584.5L124.3,568V461.8l16.5-13.2l57.7,28.9v24.7l-49.5-24.7v16.5l33.1,16.5v16.5l-33.1-16.5V584.5z"
	/>
<rect x="37.7" y="617.2" fill="#EDEBEB" stroke="#666666" stroke-width="0.25" stroke-miterlimit="10" width="930.8" height="209.1"/>
<rect x="113.4" y="641.1" fill="#FFFFFF" stroke="#666666" stroke-miterlimit="10" width="169.2" height="169.2"/>
<path fill="#DCDBDB" d="M198.5,686.6l57.7-28.9l16.5,13.2v106.3L248,793.7V686.5l-49.5,24.7L198.5,686.6L198.5,686.6z"/>
<path fill="#A8A6A6" d="M149.1,793.7l-24.7-16.5V670.9l16.5-13.2l57.7,28.9v24.7l-49.5-24.7V703l33.1,16.5V736l-33.1-16.5V793.7z"/>
<rect x="339" y="501.4" fill="#7373EA" width="258" height="30.4"/>
<rect x="339" y="710.5" fill="#7373EA" width="258" height="30.4"/>
<rect x="767.9" y="293.9" fill="#7373EA" width="156.2" height="30.4"/>
<rect x="767.9" y="499.7" fill="#7373EA" width="156.2" height="30.4"/>
<rect x="767.9" y="708.8" fill="#7373EA" width="156.2" height="30.4"/>
<rect x="37.7" y="31" fill="#606060" width="235" height="67.5"/>
<rect x="37.7" y="122" fill="#FFFFFF" stroke="#666666" stroke-width="0.25" stroke-miterlimit="10" width="930.8" height="82"/>
<rect x="113.4" y="150.8" fill="#606060" width="117.5" height="24.5"/>
<rect x="339" y="150.8" fill="#606060" width="117.5" height="24.5"/>
<rect x="767.9" y="150.8" fill="#606060" width="117.5" height="24.5"/>
<rect x="59" y="293.9" fill="#EFEAEA" stroke="#666666" stroke-width="0.5" stroke-miterlimit="10" width="22.5" height="22.5"/>
<rect x="59" y="503.9" fill="#EFEAEA" stroke="#666666" stroke-width="0.5" stroke-miterlimit="10" width="22.5" height="22.5"/>
<rect x="59" y="707.9" fill="#EFEAEA" stroke="#666666" stroke-width="0.5" stroke-miterlimit="10" width="22.5" height="22.5"/>
</svg>
